<svg width="220" height="48" viewBox="0 0 220 48" fill="none" xmlns="http://www.w3.org/2000/svg">
<path d="M36.5879 41.532L32.2439 47.96H219.873V41.532H36.5879ZM28.7178 47.96H0V0.732722H8.66986V41.532H33.1709L28.7178 47.96ZM105.529 37.7185H96.5135V0.732722H105.529V37.7185ZM133.211 10.6245H123.959V8.79266C123.959 6.87759 123.141 5.92839 121.505 5.92839C120.56 5.92839 119.924 6.14487 119.579 6.61115C119.233 7.06077 119.052 7.7935 119.052 8.79266C119.052 10.1249 119.488 11.2073 120.36 12.0066C121.233 12.8226 122.959 14.1882 125.54 16.1365C128.121 18.0849 130.048 19.95 131.32 21.7319C132.574 23.5137 133.211 25.6952 133.211 28.2764C133.211 31.7235 132.229 34.2714 130.266 35.9533C128.303 37.6186 125.359 38.4512 121.451 38.4512C118.088 38.4512 115.289 37.8018 113.09 36.5362C110.891 35.2539 109.8 33.139 109.8 30.1915V26.8942H119.052V29.7252C119.052 30.791 119.251 31.5237 119.615 31.9234C119.997 32.323 120.615 32.5229 121.505 32.5229C123.141 32.5229 123.959 31.5903 123.959 29.7252C123.959 27.8767 123.414 26.4113 122.36 25.2956C121.287 24.1798 119.542 22.7477 117.125 20.9991C114.689 19.2339 112.872 17.5187 111.654 15.8201C110.418 14.1215 109.8 11.9234 109.8 9.24229C109.8 3.08076 113.762 0 121.669 0C125.14 0 127.94 0.632805 130.048 1.91507C132.156 3.19733 133.211 5.27893 133.211 8.15986V10.6245ZM189.21 37.7352V35.92C180.867 40.8159 169.199 38.3846 167.799 27.8934C167.09 22.5478 166.581 11.607 169.417 6.82763C173.215 0.466277 183.012 -1.4821 190.301 3.21398C192.7 4.77934 194.045 7.27726 193.99 10.741L193.918 14.5379H185.102V9.52538C185.102 6.04495 176.614 5.92839 176.614 10.0083V29.8251C176.614 33.5054 185.102 34.1049 185.102 29.8251V24.9958H180.813V19.517H193.918V37.7352H189.21ZM219.873 37.7185H198.407V0.732722H219.873V6.3447H206.877V15.4205H220L219.945 21.0324H206.877V32.1065H219.873V37.7185ZM84.7356 0.566194L78.574 26.9442L72.4669 0.566194H67.3959H63.7607H58.1989L38.042 37.6019H47.7479L64.9058 5.22897L72.8486 37.552H84.2994L93.4418 0.566194H84.7356ZM51.6738 7.01082L49.9289 0.366361L41.0955 0.5995L45.2759 18.2348L51.6738 7.01082ZM54.2366 31.0408L55.9997 37.7019L64.8149 37.4687L60.6527 19.8168L54.2366 31.0408ZM153.731 21.4488H147.133L150.459 9.65861L153.731 21.4488ZM156.257 0.566194H144.97L134.719 37.552H143.244L145.661 28.1598H155.258L157.657 37.552H166.218L156.257 0.566194ZM28.7178 0.566194V25.2956C28.7178 26.0116 28.6814 26.7943 28.6269 27.6103C28.5724 28.343 28.427 29.0091 28.1725 29.6086C27.9544 30.1082 27.6091 30.5245 27.1183 30.8576C26.2459 31.4571 23.9921 31.4238 23.1923 30.8576C22.7016 30.5412 22.3562 30.1249 22.1381 29.6086C21.9019 29.0091 21.7564 28.3597 21.7201 27.6436C21.6837 26.8443 21.6656 26.0616 21.6656 25.3289V0.566194H12.3777V25.4288C12.3777 27.7102 12.6867 29.6752 13.2865 31.2572C13.9045 32.9059 14.8315 34.2714 16.0674 35.3205C20.9567 39.3338 30.081 38.9841 34.6067 34.8209C35.8245 33.6386 36.697 32.1398 37.2059 30.358C37.6966 28.6594 37.9329 26.6278 37.9329 24.2964V0.566194H28.7178Z" fill="#F32727"/>
</svg>
